<mxfile host="app.diagrams.net" modified="2023-08-15T11:32:59.594Z" agent="Mozilla/5.0 (Windows NT 10.0; Win64; x64) AppleWebKit/537.36 (KHTML, like Gecko) Chrome/115.0.0.0 Safari/537.36 Edg/115.0.1901.203" version="21.6.8" etag="lElc-F1ItG3IWPi8-W9k" type="device">
  <diagram id="C5RBs43oDa-KdzZeNtuy" name="Page-1">
    <mxGraphModel dx="1379" dy="806" grid="1" gridSize="10" guides="1" tooltips="1" connect="1" arrows="1" fold="1" page="1" pageScale="1" pageWidth="827" pageHeight="1169" math="0" shadow="0">
      <root>
        <mxCell id="WIyWlLk6GJQsqaUBKTNV-0" />
        <mxCell id="WIyWlLk6GJQsqaUBKTNV-1" parent="WIyWlLk6GJQsqaUBKTNV-0" />
        <mxCell id="QyQURVrf1hzLDgfscW6D-16" value="" style="edgeStyle=orthogonalEdgeStyle;rounded=0;orthogonalLoop=1;jettySize=auto;html=1;" edge="1" parent="WIyWlLk6GJQsqaUBKTNV-1" source="WIyWlLk6GJQsqaUBKTNV-3" target="WIyWlLk6GJQsqaUBKTNV-7">
          <mxGeometry relative="1" as="geometry" />
        </mxCell>
        <mxCell id="WIyWlLk6GJQsqaUBKTNV-3" value="ON/RESET" style="rounded=1;whiteSpace=wrap;html=1;fontSize=12;glass=0;strokeWidth=1;shadow=0;" parent="WIyWlLk6GJQsqaUBKTNV-1" vertex="1">
          <mxGeometry x="320" y="50" width="120" height="40" as="geometry" />
        </mxCell>
        <mxCell id="QyQURVrf1hzLDgfscW6D-15" value="" style="edgeStyle=orthogonalEdgeStyle;rounded=0;orthogonalLoop=1;jettySize=auto;html=1;" edge="1" parent="WIyWlLk6GJQsqaUBKTNV-1" source="WIyWlLk6GJQsqaUBKTNV-7" target="WIyWlLk6GJQsqaUBKTNV-12">
          <mxGeometry relative="1" as="geometry" />
        </mxCell>
        <mxCell id="WIyWlLk6GJQsqaUBKTNV-7" value="INIT SERVICES" style="rounded=1;whiteSpace=wrap;html=1;fontSize=12;glass=0;strokeWidth=1;shadow=0;" parent="WIyWlLk6GJQsqaUBKTNV-1" vertex="1">
          <mxGeometry x="320" y="130" width="120" height="40" as="geometry" />
        </mxCell>
        <mxCell id="QyQURVrf1hzLDgfscW6D-35" value="" style="edgeStyle=orthogonalEdgeStyle;rounded=0;orthogonalLoop=1;jettySize=auto;html=1;" edge="1" parent="WIyWlLk6GJQsqaUBKTNV-1" source="WIyWlLk6GJQsqaUBKTNV-11" target="QyQURVrf1hzLDgfscW6D-34">
          <mxGeometry relative="1" as="geometry" />
        </mxCell>
        <mxCell id="WIyWlLk6GJQsqaUBKTNV-11" value="RESET FPGA" style="rounded=1;whiteSpace=wrap;html=1;fontSize=12;glass=0;strokeWidth=1;shadow=0;" parent="WIyWlLk6GJQsqaUBKTNV-1" vertex="1">
          <mxGeometry x="480" y="190" width="120" height="40" as="geometry" />
        </mxCell>
        <mxCell id="QyQURVrf1hzLDgfscW6D-14" value="" style="edgeStyle=orthogonalEdgeStyle;rounded=0;orthogonalLoop=1;jettySize=auto;html=1;" edge="1" parent="WIyWlLk6GJQsqaUBKTNV-1" source="WIyWlLk6GJQsqaUBKTNV-12" target="WIyWlLk6GJQsqaUBKTNV-11">
          <mxGeometry relative="1" as="geometry" />
        </mxCell>
        <mxCell id="WIyWlLk6GJQsqaUBKTNV-12" value="SLEEP/&lt;br&gt;WAIT BUTTON" style="rounded=1;whiteSpace=wrap;html=1;fontSize=12;glass=0;strokeWidth=1;shadow=0;" parent="WIyWlLk6GJQsqaUBKTNV-1" vertex="1">
          <mxGeometry x="480" y="130" width="120" height="40" as="geometry" />
        </mxCell>
        <mxCell id="QyQURVrf1hzLDgfscW6D-5" value="" style="edgeStyle=orthogonalEdgeStyle;rounded=0;html=1;jettySize=auto;orthogonalLoop=1;fontSize=11;endArrow=block;endFill=0;endSize=8;strokeWidth=1;shadow=0;labelBackgroundColor=none;exitX=-0.016;exitY=0.501;exitDx=0;exitDy=0;exitPerimeter=0;entryX=0.5;entryY=1;entryDx=0;entryDy=0;" edge="1" parent="WIyWlLk6GJQsqaUBKTNV-1" source="WIyWlLk6GJQsqaUBKTNV-10" target="QyQURVrf1hzLDgfscW6D-19">
          <mxGeometry y="10" relative="1" as="geometry">
            <mxPoint as="offset" />
            <mxPoint x="290" y="250" as="sourcePoint" />
            <mxPoint x="240" y="180" as="targetPoint" />
            <Array as="points">
              <mxPoint x="240" y="270" />
            </Array>
          </mxGeometry>
        </mxCell>
        <mxCell id="QyQURVrf1hzLDgfscW6D-6" value="NO" style="edgeLabel;html=1;align=center;verticalAlign=middle;resizable=0;points=[];" vertex="1" connectable="0" parent="QyQURVrf1hzLDgfscW6D-5">
          <mxGeometry x="-0.4852" relative="1" as="geometry">
            <mxPoint x="21" y="-10" as="offset" />
          </mxGeometry>
        </mxCell>
        <mxCell id="QyQURVrf1hzLDgfscW6D-18" value="" style="edgeStyle=orthogonalEdgeStyle;rounded=0;orthogonalLoop=1;jettySize=auto;html=1;" edge="1" parent="WIyWlLk6GJQsqaUBKTNV-1" source="QyQURVrf1hzLDgfscW6D-7" target="QyQURVrf1hzLDgfscW6D-17">
          <mxGeometry relative="1" as="geometry" />
        </mxCell>
        <mxCell id="QyQURVrf1hzLDgfscW6D-7" value="LED BLUE" style="rounded=1;whiteSpace=wrap;html=1;fontSize=12;glass=0;strokeWidth=1;shadow=0;" vertex="1" parent="WIyWlLk6GJQsqaUBKTNV-1">
          <mxGeometry x="320" y="340" width="120" height="40" as="geometry" />
        </mxCell>
        <mxCell id="QyQURVrf1hzLDgfscW6D-8" value="" style="edgeStyle=orthogonalEdgeStyle;rounded=0;html=1;jettySize=auto;orthogonalLoop=1;fontSize=11;endArrow=block;endFill=0;endSize=8;strokeWidth=1;shadow=0;labelBackgroundColor=none;entryX=0.5;entryY=0;entryDx=0;entryDy=0;" edge="1" parent="WIyWlLk6GJQsqaUBKTNV-1" source="WIyWlLk6GJQsqaUBKTNV-10" target="QyQURVrf1hzLDgfscW6D-7">
          <mxGeometry y="10" relative="1" as="geometry">
            <mxPoint as="offset" />
            <mxPoint x="380" y="290" as="sourcePoint" />
            <mxPoint x="390" y="330" as="targetPoint" />
            <Array as="points" />
          </mxGeometry>
        </mxCell>
        <mxCell id="QyQURVrf1hzLDgfscW6D-49" value="YES" style="edgeLabel;html=1;align=center;verticalAlign=middle;resizable=0;points=[];" vertex="1" connectable="0" parent="QyQURVrf1hzLDgfscW6D-8">
          <mxGeometry x="-0.6505" y="5" relative="1" as="geometry">
            <mxPoint x="15" as="offset" />
          </mxGeometry>
        </mxCell>
        <mxCell id="QyQURVrf1hzLDgfscW6D-21" value="" style="edgeStyle=orthogonalEdgeStyle;rounded=0;orthogonalLoop=1;jettySize=auto;html=1;" edge="1" parent="WIyWlLk6GJQsqaUBKTNV-1" source="QyQURVrf1hzLDgfscW6D-10" target="WIyWlLk6GJQsqaUBKTNV-3">
          <mxGeometry relative="1" as="geometry" />
        </mxCell>
        <mxCell id="QyQURVrf1hzLDgfscW6D-10" value="WAIT FOR RESET" style="rounded=1;whiteSpace=wrap;html=1;fontSize=12;glass=0;strokeWidth=1;shadow=0;" vertex="1" parent="WIyWlLk6GJQsqaUBKTNV-1">
          <mxGeometry x="180" y="50" width="120" height="40" as="geometry" />
        </mxCell>
        <mxCell id="QyQURVrf1hzLDgfscW6D-23" value="" style="edgeStyle=orthogonalEdgeStyle;rounded=0;orthogonalLoop=1;jettySize=auto;html=1;" edge="1" parent="WIyWlLk6GJQsqaUBKTNV-1" source="QyQURVrf1hzLDgfscW6D-17" target="QyQURVrf1hzLDgfscW6D-22">
          <mxGeometry relative="1" as="geometry" />
        </mxCell>
        <mxCell id="QyQURVrf1hzLDgfscW6D-17" value="CONFIG VALUES &amp;amp; TRIGGER" style="rounded=1;whiteSpace=wrap;html=1;fontSize=12;glass=0;strokeWidth=1;shadow=0;" vertex="1" parent="WIyWlLk6GJQsqaUBKTNV-1">
          <mxGeometry x="480" y="340" width="120" height="40" as="geometry" />
        </mxCell>
        <mxCell id="QyQURVrf1hzLDgfscW6D-20" value="" style="edgeStyle=orthogonalEdgeStyle;rounded=0;orthogonalLoop=1;jettySize=auto;html=1;" edge="1" parent="WIyWlLk6GJQsqaUBKTNV-1" source="QyQURVrf1hzLDgfscW6D-19" target="QyQURVrf1hzLDgfscW6D-10">
          <mxGeometry relative="1" as="geometry" />
        </mxCell>
        <mxCell id="QyQURVrf1hzLDgfscW6D-19" value="LED RED" style="rounded=1;whiteSpace=wrap;html=1;fontSize=12;glass=0;strokeWidth=1;shadow=0;" vertex="1" parent="WIyWlLk6GJQsqaUBKTNV-1">
          <mxGeometry x="180" y="130" width="120" height="40" as="geometry" />
        </mxCell>
        <mxCell id="QyQURVrf1hzLDgfscW6D-25" value="" style="edgeStyle=orthogonalEdgeStyle;rounded=0;orthogonalLoop=1;jettySize=auto;html=1;" edge="1" parent="WIyWlLk6GJQsqaUBKTNV-1" source="QyQURVrf1hzLDgfscW6D-22" target="QyQURVrf1hzLDgfscW6D-24">
          <mxGeometry relative="1" as="geometry" />
        </mxCell>
        <mxCell id="QyQURVrf1hzLDgfscW6D-22" value="PREPARE FRAMS &amp;amp; ADC" style="rounded=1;whiteSpace=wrap;html=1;fontSize=12;glass=0;strokeWidth=1;shadow=0;" vertex="1" parent="WIyWlLk6GJQsqaUBKTNV-1">
          <mxGeometry x="480" y="410" width="120" height="40" as="geometry" />
        </mxCell>
        <mxCell id="QyQURVrf1hzLDgfscW6D-27" value="" style="edgeStyle=orthogonalEdgeStyle;rounded=0;orthogonalLoop=1;jettySize=auto;html=1;" edge="1" parent="WIyWlLk6GJQsqaUBKTNV-1" source="QyQURVrf1hzLDgfscW6D-24" target="QyQURVrf1hzLDgfscW6D-26">
          <mxGeometry relative="1" as="geometry" />
        </mxCell>
        <mxCell id="QyQURVrf1hzLDgfscW6D-24" value="SLEEP/&lt;br&gt;WAIT END AQU" style="rounded=1;whiteSpace=wrap;html=1;fontSize=12;glass=0;strokeWidth=1;shadow=0;" vertex="1" parent="WIyWlLk6GJQsqaUBKTNV-1">
          <mxGeometry x="320" y="410" width="120" height="40" as="geometry" />
        </mxCell>
        <mxCell id="QyQURVrf1hzLDgfscW6D-31" value="" style="edgeStyle=orthogonalEdgeStyle;rounded=0;orthogonalLoop=1;jettySize=auto;html=1;" edge="1" parent="WIyWlLk6GJQsqaUBKTNV-1" source="QyQURVrf1hzLDgfscW6D-26" target="QyQURVrf1hzLDgfscW6D-30">
          <mxGeometry relative="1" as="geometry" />
        </mxCell>
        <mxCell id="QyQURVrf1hzLDgfscW6D-26" value="START TIMER/&lt;br&gt;BLUE BLINK" style="rounded=1;whiteSpace=wrap;html=1;fontSize=12;glass=0;strokeWidth=1;shadow=0;" vertex="1" parent="WIyWlLk6GJQsqaUBKTNV-1">
          <mxGeometry x="320" y="480" width="120" height="40" as="geometry" />
        </mxCell>
        <mxCell id="QyQURVrf1hzLDgfscW6D-33" value="" style="edgeStyle=orthogonalEdgeStyle;rounded=0;orthogonalLoop=1;jettySize=auto;html=1;" edge="1" parent="WIyWlLk6GJQsqaUBKTNV-1" source="QyQURVrf1hzLDgfscW6D-30" target="QyQURVrf1hzLDgfscW6D-32">
          <mxGeometry relative="1" as="geometry" />
        </mxCell>
        <mxCell id="QyQURVrf1hzLDgfscW6D-30" value="READ FRAMS &amp;amp; WRITE SD_CARD" style="rounded=1;whiteSpace=wrap;html=1;fontSize=12;glass=0;strokeWidth=1;shadow=0;" vertex="1" parent="WIyWlLk6GJQsqaUBKTNV-1">
          <mxGeometry x="480" y="480" width="120" height="40" as="geometry" />
        </mxCell>
        <mxCell id="QyQURVrf1hzLDgfscW6D-40" value="" style="edgeStyle=orthogonalEdgeStyle;rounded=0;orthogonalLoop=1;jettySize=auto;html=1;" edge="1" parent="WIyWlLk6GJQsqaUBKTNV-1" source="QyQURVrf1hzLDgfscW6D-32" target="QyQURVrf1hzLDgfscW6D-39">
          <mxGeometry relative="1" as="geometry" />
        </mxCell>
        <mxCell id="QyQURVrf1hzLDgfscW6D-32" value="LED GREEN /&lt;br&gt;STOP TIMER" style="rounded=1;whiteSpace=wrap;html=1;fontSize=12;glass=0;strokeWidth=1;shadow=0;" vertex="1" parent="WIyWlLk6GJQsqaUBKTNV-1">
          <mxGeometry x="480" y="560" width="120" height="40" as="geometry" />
        </mxCell>
        <mxCell id="QyQURVrf1hzLDgfscW6D-38" value="" style="edgeStyle=orthogonalEdgeStyle;rounded=0;orthogonalLoop=1;jettySize=auto;html=1;" edge="1" parent="WIyWlLk6GJQsqaUBKTNV-1" source="QyQURVrf1hzLDgfscW6D-34" target="WIyWlLk6GJQsqaUBKTNV-10">
          <mxGeometry relative="1" as="geometry" />
        </mxCell>
        <mxCell id="QyQURVrf1hzLDgfscW6D-34" value="CREATE FILE &amp;amp; READ SD_CARD" style="rounded=1;whiteSpace=wrap;html=1;fontSize=12;glass=0;strokeWidth=1;shadow=0;" vertex="1" parent="WIyWlLk6GJQsqaUBKTNV-1">
          <mxGeometry x="480" y="250" width="120" height="40" as="geometry" />
        </mxCell>
        <mxCell id="WIyWlLk6GJQsqaUBKTNV-10" value="SD_CARD &lt;br&gt;&amp;nbsp; &amp;nbsp;IN ?" style="rhombus;whiteSpace=wrap;html=1;shadow=0;fontFamily=Helvetica;fontSize=12;align=center;strokeWidth=1;spacing=6;spacingTop=-4;" parent="WIyWlLk6GJQsqaUBKTNV-1" vertex="1">
          <mxGeometry x="330" y="230" width="100" height="80" as="geometry" />
        </mxCell>
        <mxCell id="QyQURVrf1hzLDgfscW6D-39" value="READ SD_CARD ?" style="rhombus;whiteSpace=wrap;html=1;shadow=0;fontFamily=Helvetica;fontSize=12;align=center;strokeWidth=1;spacing=6;spacingTop=-4;" vertex="1" parent="WIyWlLk6GJQsqaUBKTNV-1">
          <mxGeometry x="330" y="540" width="100" height="80" as="geometry" />
        </mxCell>
        <mxCell id="QyQURVrf1hzLDgfscW6D-41" value="" style="edgeStyle=orthogonalEdgeStyle;rounded=0;html=1;jettySize=auto;orthogonalLoop=1;fontSize=11;endArrow=block;endFill=0;endSize=8;strokeWidth=1;shadow=0;labelBackgroundColor=none;entryX=1;entryY=0.5;entryDx=0;entryDy=0;exitX=0.5;exitY=1;exitDx=0;exitDy=0;" edge="1" parent="WIyWlLk6GJQsqaUBKTNV-1" source="QyQURVrf1hzLDgfscW6D-39" target="WIyWlLk6GJQsqaUBKTNV-12">
          <mxGeometry y="10" relative="1" as="geometry">
            <mxPoint as="offset" />
            <mxPoint x="660" y="635" as="sourcePoint" />
            <mxPoint x="650" y="50" as="targetPoint" />
            <Array as="points">
              <mxPoint x="380" y="650" />
              <mxPoint x="660" y="650" />
              <mxPoint x="660" y="150" />
            </Array>
          </mxGeometry>
        </mxCell>
        <mxCell id="QyQURVrf1hzLDgfscW6D-43" value="NO" style="edgeLabel;html=1;align=center;verticalAlign=middle;resizable=0;points=[];" vertex="1" connectable="0" parent="QyQURVrf1hzLDgfscW6D-41">
          <mxGeometry x="-0.7072" y="-2" relative="1" as="geometry">
            <mxPoint x="-77" y="-22" as="offset" />
          </mxGeometry>
        </mxCell>
        <mxCell id="QyQURVrf1hzLDgfscW6D-44" value="" style="edgeStyle=orthogonalEdgeStyle;rounded=0;html=1;jettySize=auto;orthogonalLoop=1;fontSize=11;endArrow=block;endFill=0;endSize=8;strokeWidth=1;shadow=0;labelBackgroundColor=none;exitX=0;exitY=0.5;exitDx=0;exitDy=0;entryX=0;entryY=0.5;entryDx=0;entryDy=0;" edge="1" parent="WIyWlLk6GJQsqaUBKTNV-1" source="QyQURVrf1hzLDgfscW6D-39" target="QyQURVrf1hzLDgfscW6D-10">
          <mxGeometry y="10" relative="1" as="geometry">
            <mxPoint as="offset" />
            <mxPoint x="300" y="590" as="sourcePoint" />
            <mxPoint x="150" y="80" as="targetPoint" />
            <Array as="points">
              <mxPoint x="130" y="580" />
              <mxPoint x="130" y="70" />
            </Array>
          </mxGeometry>
        </mxCell>
        <mxCell id="QyQURVrf1hzLDgfscW6D-45" value="YES" style="edgeLabel;html=1;align=center;verticalAlign=middle;resizable=0;points=[];" vertex="1" connectable="0" parent="QyQURVrf1hzLDgfscW6D-44">
          <mxGeometry x="-0.4852" relative="1" as="geometry">
            <mxPoint x="166" y="-10" as="offset" />
          </mxGeometry>
        </mxCell>
        <mxCell id="QyQURVrf1hzLDgfscW6D-46" value="" style="ellipse;whiteSpace=wrap;html=1;aspect=fixed;" vertex="1" parent="WIyWlLk6GJQsqaUBKTNV-1">
          <mxGeometry x="375" y="10" width="10" height="10" as="geometry" />
        </mxCell>
        <mxCell id="QyQURVrf1hzLDgfscW6D-48" value="" style="endArrow=classic;html=1;rounded=0;exitX=0.5;exitY=1;exitDx=0;exitDy=0;entryX=0.5;entryY=0;entryDx=0;entryDy=0;" edge="1" parent="WIyWlLk6GJQsqaUBKTNV-1" source="QyQURVrf1hzLDgfscW6D-46" target="WIyWlLk6GJQsqaUBKTNV-3">
          <mxGeometry width="50" height="50" relative="1" as="geometry">
            <mxPoint x="310" y="190" as="sourcePoint" />
            <mxPoint x="360" y="140" as="targetPoint" />
          </mxGeometry>
        </mxCell>
      </root>
    </mxGraphModel>
  </diagram>
</mxfile>
